<?xml version="1.0" encoding="utf-8"?>
<!-- Generator: Adobe Illustrator 20.0.0, SVG Export Plug-In . SVG Version: 6.00 Build 0)  -->
<svg version="1.1" id="Layer_1" xmlns="http://www.w3.org/2000/svg" xmlns:xlink="http://www.w3.org/1999/xlink" x="0px" y="0px"
	 viewBox="0 0 8 8" style="enable-background:new 0 0 8 8;" xml:space="preserve">
<title>HACKArtboard 60</title>
<polygon points="6,2 6,1 3,1 3,2 "/>
<rect x="6" y="2" width="1" height="1"/>
<rect x="2" y="2" width="1" height="1"/>
<polygon points="1,6 2,6 2,3 1,3 "/>
<polygon points="3,4 3,5 7,5 7,5 7,6 8,6 8,5 8,4 8,4 "/>
<polygon points="3,7 3,8 6,8 6,7 "/>
<rect x="6" y="6" width="1" height="1"/>
<rect x="2" y="6" width="1" height="1"/>
</svg>
