<?xml version="1.0" encoding="utf-8"?>
<!-- Generator: Adobe Illustrator 20.0.0, SVG Export Plug-In . SVG Version: 6.00 Build 0)  -->
<svg version="1.1" id="Layer_1" xmlns="http://www.w3.org/2000/svg" xmlns:xlink="http://www.w3.org/1999/xlink" x="0px" y="0px"
	 viewBox="0 0 8 8" style="enable-background:new 0 0 8 8;" xml:space="preserve">
<title>HACKArtboard 14</title>
<path d="M1,1c0,2.3,0,4.6,0,7c0,0,0,0,0,0c2.3,0,4.7,0,7,0c0-1,0-2,0-3c0,0-1,0-1,0c0,0.2,0,2,0,2C6.6,7,2,7,2,7c0-1.7,0-3.3,0-5
	c0,0,5,0,5,0v2h1V1C8,1,1,1,1,1z"/>
<path d="M4,4c0,0,0,1,0,1c1,0,2,0,3,0c0,0,0-1,0-1C6.3,4,4.3,4,4,4z"/>
</svg>
