<?xml version="1.0" encoding="utf-8"?>
<!-- Generator: Adobe Illustrator 20.0.0, SVG Export Plug-In . SVG Version: 6.00 Build 0)  -->
<svg version="1.1" id="Layer_1" xmlns="http://www.w3.org/2000/svg" xmlns:xlink="http://www.w3.org/1999/xlink" x="0px" y="0px"
	 viewBox="0 0 8 8" style="enable-background:new 0 0 8 8;" xml:space="preserve">
<title>HACKArtboard 17</title>
<polygon points="1,8 2,8 2,2 1,2 "/>
<polygon points="5,1 5,2 5,2 4,2 4,2 4,2 4,1 2,1 2,2 3,2 3,3 4,3 4,3 4,4 5,4 5,3 6,3 6,2 6,2 7,2 7,1 "/>
<polygon points="7,2 7,8 8,8 8,2 "/>
</svg>
