<?xml version="1.0" encoding="utf-8"?>
<!-- Generator: Adobe Illustrator 20.0.0, SVG Export Plug-In . SVG Version: 6.00 Build 0)  -->
<svg version="1.1" id="Layer_1" xmlns="http://www.w3.org/2000/svg" xmlns:xlink="http://www.w3.org/1999/xlink" x="0px" y="0px"
	 viewBox="0 0 8 8" style="enable-background:new 0 0 8 8;" xml:space="preserve">
<title>HACKArtboard 23</title>
<polygon points="7,1 7,3 8,3 8,1 "/>
<rect x="6" y="3" width="1" height="1"/>
<rect x="2" y="3" width="1" height="1"/>
<rect x="3" y="4" width="1" height="1"/>
<polygon points="1,3 2,3 2,1 1,1 "/>
<polygon points="5,5 6,5 6,4 5,4 5,5 4,5 4,7 4,7 4,7 4,7 3,7 3,8 6,8 6,7 5,7 "/>
</svg>
