<?xml version="1.0" encoding="utf-8"?>
<!-- Generator: Adobe Illustrator 20.0.0, SVG Export Plug-In . SVG Version: 6.00 Build 0)  -->
<svg version="1.1" id="Layer_1" xmlns="http://www.w3.org/2000/svg" xmlns:xlink="http://www.w3.org/1999/xlink" x="0px" y="0px"
	 viewBox="0 0 8 8" style="enable-background:new 0 0 8 8;" xml:space="preserve">
<title>HACKArtboard 11</title>
<rect x="4" y="4" width="1" height="1"/>
<polygon points="3,3 3,1 1,1 1,1 1,4 1,4 4,4 4,3 3,3 "/>
<polygon points="1,5 1,8 3,8 3,6 4,6 4,5 "/>
<polygon points="6,1 6,3 6,3 5,3 5,4 8,4 8,1 "/>
<polygon points="5,5 5,6 6,6 6,8 6,8 8,8 8,5 "/>
</svg>
