<?xml version="1.0" encoding="utf-8"?>
<!-- Generator: Adobe Illustrator 20.0.0, SVG Export Plug-In . SVG Version: 6.00 Build 0)  -->
<svg version="1.1" id="Layer_1" xmlns="http://www.w3.org/2000/svg" xmlns:xlink="http://www.w3.org/1999/xlink" x="0px" y="0px"
	 viewBox="0 0 8 8" style="enable-background:new 0 0 8 8;" xml:space="preserve">
<title>HACKArtboard 13</title>
<polygon points="6,1 6,2 6,2 5,2 5,3 4,3 4,3 4,3 4,2 3,2 3,2 3,2 3,1 1,1 1,3 2,3 2,3 2,3 2,4 3,4 3,4 3,5 2,5 2,6 2,6 1,6 1,8 
	3,8 3,7 3,7 3,7 4,7 4,6 4,6 4,6 5,6 5,7 6,7 6,7 6,7 6,7 6,7 6,8 8,8 8,6 7,6 7,6 7,5 6,5 6,5 6,5 6,5 6,4 7,4 7,3 7,3 8,3 8,1 "/>
</svg>
