<?xml version="1.0" encoding="utf-8"?>
<!-- Generator: Adobe Illustrator 20.0.0, SVG Export Plug-In . SVG Version: 6.00 Build 0)  -->
<svg version="1.1" id="Layer_1" xmlns="http://www.w3.org/2000/svg" xmlns:xlink="http://www.w3.org/1999/xlink" x="0px" y="0px"
	 viewBox="0 0 8 8" style="enable-background:new 0 0 8 8;" xml:space="preserve">
<title>HACKArtboard 3</title>
<polygon points="8,1 7,1 7,7 8,7 "/>
<polygon points="4,8 4,7 4,7 5,7 5,7 5,7 5,8 7,8 7,7 6,7 6,6 5,6 5,6 5,5 4,5 4,6 3,6 3,7 3,7 2,7 2,8 "/>
<polygon points="2,7 2,1 1,1 1,7 "/>
</svg>
